<svg width="120" height="120" viewBox="0 0 120 120" fill="none" xmlns="http://www.w3.org/2000/svg">
<rect width="120" height="120" fill="#121212"/>
<path d="M18.1199 57.5041C20.5426 57.5041 22.2587 56.9329 23.2681 55.7905C24.2776 54.648 24.7823 52.7357 24.7823 50.0536V37.7602C24.7823 34.7303 25.5142 32.3461 26.9779 30.6077C28.4921 28.8692 30.511 28 33.0347 28H40V32.9173H35.2303C33.3628 32.9173 32.1009 33.265 31.4448 33.9604C30.7886 34.6061 30.4606 35.8976 30.4606 37.8347V49.7555C30.4606 52.7854 29.9811 55.0206 29.0221 56.461C28.1136 57.9014 26.3218 59.0687 23.6467 59.9627C26.3218 60.8071 28.1136 61.9744 29.0221 63.4645C29.9811 64.9546 30.4606 67.2146 30.4606 70.2445V82.1653C30.4606 84.1024 30.7886 85.3939 31.4448 86.0396C32.1009 86.735 33.3628 87.0827 35.2303 87.0827H40V92H33.0347C30.511 92 28.4921 91.1308 26.9779 89.3923C25.5142 87.6539 24.7823 85.2697 24.7823 82.2398V69.9464C24.7823 67.2643 24.2776 65.352 23.2681 64.2095C22.2587 63.0175 20.5426 62.4214 18.1199 62.4214H16V57.5041H18.1199Z" fill="white"/>
<path d="M101.88 57.5041C99.4574 57.5041 97.7413 56.9329 96.7319 55.7905C95.7224 54.648 95.2177 52.7357 95.2177 50.0536V37.7602C95.2177 34.7303 94.4858 32.3461 93.0221 30.6077C91.5079 28.8692 89.489 28 86.9653 28H80V32.9173H84.7697C86.6372 32.9173 87.8991 33.265 88.5552 33.9604C89.2114 34.6061 89.5394 35.8976 89.5394 37.8347V49.7555C89.5394 52.7854 90.0189 55.0206 90.9779 56.461C91.8864 57.9014 93.6782 59.0687 96.3533 59.9627C93.6782 60.8071 91.8864 61.9744 90.9779 63.4645C90.0189 64.9546 89.5394 67.2146 89.5394 70.2445V82.1653C89.5394 84.1024 89.2114 85.3939 88.5552 86.0396C87.8991 86.735 86.6372 87.0827 84.7697 87.0827H80V92H86.9653C89.489 92 91.5079 91.1308 93.0221 89.3923C94.4858 87.6539 95.2177 85.2697 95.2177 82.2398V69.9464C95.2177 67.2643 95.7224 65.352 96.7319 64.2095C97.7413 63.0175 99.4574 62.4214 101.88 62.4214H104V57.5041H101.88Z" fill="white"/>
<path d="M68.1603 54.2133C69.6638 53.7129 71.2889 53.7129 72.7923 54.2133C73.7737 54.5413 74.5843 55.1147 75.371 55.8027C76.123 56.464 76.9763 57.3467 77.9977 58.4027C79.2172 59.6702 80.4385 60.936 81.6617 62.2C82.8563 63.432 83.3363 64.7333 83.331 66.472C83.315 70.896 83.2217 73.9307 81.9523 76.4187C80.7374 78.8013 78.7995 80.7382 76.4163 81.952C72.8297 83.7813 68.243 83.3333 64.355 83.3333H55.6457C52.7337 83.3333 50.4243 83.3333 48.5657 83.1813C46.6617 83.0267 45.0537 82.7013 43.5843 81.9547C41.2007 80.7402 39.2628 78.8023 38.0483 76.4187C37.2617 74.8747 36.955 73.1947 36.795 71.1493C36.5603 68.056 39.1843 65.552 41.203 63.5173C42.0217 62.6907 42.8857 61.9973 43.9577 61.6027C45.5841 61.0079 47.3686 61.0079 48.995 61.6027C50.067 61.9973 50.931 62.6907 51.7497 63.5173C52.5443 64.3173 53.435 65.384 54.5123 66.6773C54.6057 66.792 54.7523 66.8987 54.8883 66.7573L62.955 58.4027C63.979 57.3467 64.8297 56.464 65.5817 55.8027C66.3683 55.1147 67.1817 54.5413 68.1603 54.2133ZM68.2217 58.808C67.6083 59.3467 66.8697 60.1093 65.7763 61.2427L57.7657 69.536C57.3547 69.9619 56.8585 70.2964 56.3096 70.5178C55.7607 70.7391 55.1713 70.8424 54.5798 70.8207C53.9883 70.7991 53.408 70.6531 52.8768 70.3922C52.3455 70.1313 51.8751 69.7614 51.4963 69.3067C50.347 67.9307 49.5657 66.9947 48.9097 66.336C48.2697 65.688 47.8963 65.4613 47.6217 65.36C46.8821 65.0894 46.0706 65.0894 45.331 65.36C45.0563 65.4613 44.6857 65.688 44.043 66.336C43.0563 67.328 42.1843 68.4347 41.291 69.5093C40.8617 70.024 40.7443 70.296 40.7923 70.9493C40.9257 72.6987 41.1843 73.7627 41.611 74.6027C42.4418 76.233 43.7673 77.5585 45.3977 78.3893C46.211 78.8027 47.2377 79.0587 48.891 79.1947C50.571 79.3307 52.715 79.3333 55.7337 79.3333H64.267C67.4457 79.3333 71.6403 79.8987 74.603 78.3893C76.2333 77.5585 77.5588 76.233 78.3897 74.6027C79.1417 73.1227 79.3123 71.128 79.331 66.4587C79.3337 65.728 79.2217 65.4293 78.6963 64.888L75.1763 61.2427C74.083 60.1093 73.347 59.3493 72.731 58.808C71.3577 57.6027 69.6537 57.5493 68.2217 58.808Z" fill="white"/>
<path d="M55.6457 36.6667H64.355C67.267 36.6667 69.5763 36.6667 71.435 36.8187C73.339 36.9733 74.947 37.2987 76.419 38.0453C78.802 39.2609 80.739 41.1998 81.9523 43.584C82.7017 45.0507 83.027 46.6613 83.1817 48.5653C83.3337 50.424 83.3337 52.7333 83.3337 55.6453V64.3547C83.3337 67.2667 83.3337 69.576 83.1817 71.4347C83.027 73.3387 82.7017 74.9467 81.955 76.4187C80.7394 78.8017 78.8005 80.7387 76.4163 81.952C74.9497 82.7013 73.339 83.0267 71.435 83.1813C69.5763 83.3333 67.267 83.3333 64.355 83.3333H55.6457C52.7337 83.3333 50.4243 83.3333 48.5657 83.1813C46.6617 83.0267 45.0537 82.7013 43.5843 81.9547C41.2007 80.7402 39.2628 78.8023 38.0483 76.4187C37.299 74.9467 36.9737 73.3387 36.819 71.4347C36.667 69.576 36.667 67.2667 36.667 64.3547V55.6453C36.667 52.7333 36.667 50.424 36.819 48.5653C36.9737 46.6613 37.299 45.0533 38.0457 43.584C39.2608 41.2 41.1997 39.262 43.5843 38.048C45.051 37.2987 46.6617 36.9733 48.5657 36.8187C50.4243 36.6667 52.7337 36.6667 55.6457 36.6667ZM48.891 40.8053C47.2377 40.9387 46.211 41.1973 45.3977 41.6107C43.7673 42.4415 42.4418 43.767 41.611 45.3973C41.1977 46.2107 40.9417 47.2373 40.8057 48.8907C40.6697 50.5707 40.667 52.7147 40.667 55.7333V64.2667C40.667 67.288 40.667 69.432 40.8057 71.1093C40.939 72.7627 41.1977 73.7893 41.611 74.6027C42.4418 76.233 43.7673 77.5585 45.3977 78.3893C46.211 78.8027 47.2377 79.0587 48.891 79.1947C50.571 79.3307 52.715 79.3333 55.7337 79.3333H64.267C67.2883 79.3333 69.4323 79.3333 71.1097 79.1947C72.763 79.0613 73.7897 78.8027 74.603 78.3893C76.2333 77.5585 77.5588 76.233 78.3897 74.6027C78.803 73.7893 79.059 72.7627 79.195 71.1093C79.331 69.4293 79.3337 67.2853 79.3337 64.2667V55.7333C79.3337 52.7147 79.3337 50.568 79.195 48.8907C79.0617 47.2373 78.803 46.2107 78.3897 45.3973C77.5588 43.767 76.2333 42.4415 74.603 41.6107C73.7897 41.1973 72.763 40.9413 71.1097 40.8053C69.4297 40.6693 67.2857 40.6667 64.267 40.6667H55.7337C52.715 40.6667 50.5683 40.6667 48.891 40.8053Z" fill="white"/>
<path d="M54.667 48.6667C53.7829 48.6667 52.9351 49.0178 52.31 49.643C51.6848 50.2681 51.3337 51.1159 51.3337 52C51.3337 52.884 51.6848 53.7319 52.31 54.357C52.9351 54.9821 53.7829 55.3333 54.667 55.3333C55.551 55.3333 56.3989 54.9821 57.024 54.357C57.6491 53.7319 58.0003 52.884 58.0003 52C58.0003 51.1159 57.6491 50.2681 57.024 49.643C56.3989 49.0178 55.551 48.6667 54.667 48.6667ZM47.3337 52C47.3337 50.0551 48.1063 48.1898 49.4815 46.8145C50.8568 45.4393 52.7221 44.6667 54.667 44.6667C56.6119 44.6667 58.4772 45.4393 59.8524 46.8145C61.2277 48.1898 62.0003 50.0551 62.0003 52C62.0003 53.9449 61.2277 55.8102 59.8524 57.1854C58.4772 58.5607 56.6119 59.3333 54.667 59.3333C52.7221 59.3333 50.8568 58.5607 49.4815 57.1854C48.1063 55.8102 47.3337 53.9449 47.3337 52Z" fill="white"/>
</svg>
